<?xml version="1.0" encoding="utf-8" standalone="no"?>
<!DOCTYPE svg PUBLIC "-//W3C//DTD SVG 1.1//EN"
  "http://www.w3.org/Graphics/SVG/1.1/DTD/svg11.dtd">
<svg xmlns:xlink="http://www.w3.org/1999/xlink" width="604.8pt" height="604.8pt" viewBox="0 0 604.8 604.8" xmlns="http://www.w3.org/2000/svg" version="1.1">
 <metadata>
  <rdf:RDF xmlns:dc="http://purl.org/dc/elements/1.1/" xmlns:cc="http://creativecommons.org/ns#" xmlns:rdf="http://www.w3.org/1999/02/22-rdf-syntax-ns#">
   <cc:Work>
    <dc:type rdf:resource="http://purl.org/dc/dcmitype/StillImage"/>
    <dc:date>2026-09-02T20:31:02.578986</dc:date>
    <dc:format>image/svg+xml</dc:format>
    <dc:creator>
     <cc:Agent>
      <dc:title>Matplotlib v3.11.1, https://matplotlib.org/</dc:title>
     </cc:Agent>
    </dc:creator>
   </cc:Work>
  </rdf:RDF>
 </metadata>
 <defs>
  <style type="text/css">*{stroke-linejoin: round; stroke-linecap: butt}</style>
 </defs>
 <g id="figure_1">
  <g id="patch_1">
   <path d="M 0 604.8
L 604.8 604.8
L 604.8 0
L 0 0
z
" style="fill: #ffffff"/>
  </g>
  <g id="axes_1">
   <g id="patch_2">
    <path d="M 269.540449 193.298515
C 351.532461 352.624517 447.52852 496.517155 536.38661 593.285746
C 625.2447 690.054337 699.70995 731.798153 743.382253 709.323604
C 787.054557 686.849055 796.368263 601.991089 769.272138 473.438686
C 742.176012 344.886283 680.882332 183.13518 598.89032 23.809177
C 516.898309 -135.516825 420.902249 -279.409463 332.044159 -376.178054
C 243.18607 -472.946644 168.72082 -514.690461 125.048516 -492.215912
C 81.376213 -469.741363 72.062506 -384.883396 99.158632 -256.330994
C 126.254757 -127.778591 187.548437 33.972513 269.540449 193.298515
L 269.540449 193.298515
z
" clip-path="url(#p17f6525bb3)" style="fill: none; stroke: #d2603a; stroke-width: 2.5; stroke-linejoin: miter"/>
   </g>
   <g id="patch_3">
    <path d="M 93.046154 821.907692
C 175.299915 821.907692 254.195849 789.227926 312.358042 731.065734
C 370.520234 672.903541 403.2 594.007608 403.2 511.753846
C 403.2 429.500085 370.520234 350.604151 312.358042 292.441958
C 254.195849 234.279766 175.299915 201.6 93.046154 201.6
C 10.792392 201.6 -68.103541 234.279766 -126.265734 292.441958
C -184.427926 350.604151 -217.107692 429.500085 -217.107692 511.753846
C -217.107692 594.007608 -184.427926 672.903541 -126.265734 731.065734
C -68.103541 789.227926 10.792392 821.907692 93.046154 821.907692
z
" clip-path="url(#p17f6525bb3)" style="fill: #2dd4bf; opacity: 0.2; stroke: #2dd4bf; stroke-width: 2; stroke-linejoin: miter"/>
   </g>
   <g id="PathCollection_1">
    <defs>
     <path id="m0febb66546" d="M 0 4.1833
C 1.109424 4.1833 2.173559 3.742521 2.95804 2.95804
C 3.742521 2.173559 4.1833 1.109424 4.1833 0
C 4.1833 -1.109424 3.742521 -2.173559 2.95804 -2.95804
C 2.173559 -3.742521 1.109424 -4.1833 0 -4.1833
C -1.109424 -4.1833 -2.173559 -3.742521 -2.95804 -2.95804
C -3.742521 -2.173559 -4.1833 -1.109424 -4.1833 0
C -4.1833 1.109424 -3.742521 2.173559 -2.95804 2.95804
C -2.173559 3.742521 -1.109424 4.1833 0 4.1833
z
" style="stroke: #757575"/>
    </defs>
    <g clip-path="url(#p17f6525bb3)">
     <use xlink:href="#m0febb66546" x="434.215385" y="108.553846" style="fill: #757575; stroke: #757575"/>
    </g>
   </g>
   <g id="PathCollection_2">
    <defs>
     <path id="m92ea846970" d="M 0 4.743416
C 1.257969 4.743416 2.464584 4.24362 3.354102 3.354102
C 4.24362 2.464584 4.743416 1.257969 4.743416 0
C 4.743416 -1.257969 4.24362 -2.464584 3.354102 -3.354102
C 2.464584 -4.24362 1.257969 -4.743416 0 -4.743416
C -1.257969 -4.743416 -2.464584 -4.24362 -3.354102 -3.354102
C -4.24362 -2.464584 -4.743416 -1.257969 -4.743416 0
C -4.743416 1.257969 -4.24362 2.464584 -3.354102 3.354102
C -2.464584 4.24362 -1.257969 4.743416 0 4.743416
z
" style="stroke: #38bdf8"/>
    </defs>
    <g clip-path="url(#p17f6525bb3)">
     <use xlink:href="#m92ea846970" x="357.381453" y="349.51249" style="fill: #38bdf8; stroke: #38bdf8"/>
    </g>
   </g>
  </g>
 </g>
 <defs>
  <clipPath id="p17f6525bb3">
   <rect x="0" y="0" width="604.8" height="604.8"/>
  </clipPath>
 </defs>
</svg>
